<svg xmlns="http://www.w3.org/2000/svg" width="97" height="20" fill="none"><path fill="#fff" d="M30.1167.663786h-2.2353L24.9751 19.3362h10.6448l.2843-1.8539h-8.4095L30.1167.663786ZM48.092.428123c-5.5805 0-9.8733 4.805577-9.8733 10.759977 0 4.8056 3.3163 8.3838 8.4076 8.3838 5.4258 0 9.7205-4.5444 9.7205-10.73254-.002-4.57188-2.9585-8.411237-8.2548-8.411237ZM46.6514 17.7101c-3.5734 0-6.12-2.4548-6.12-6.5298 0-4.83112 2.9005-8.93167 7.5413-8.93167 3.8576 0 5.9653 2.94579 5.9653 6.58091-.0058 5.10016-3.0146 8.88646-7.3866 8.88646v-.0059Zm21.5487-5.9269h5.451c-.5395 3.4466-2.4693 5.9544-6.1452 5.9544-4.0375 0-6.0949-2.6119-6.0949-6.6064 0-4.90968 2.7516-8.90614 7.2512-8.90614 2.7265 0 4.7568 1.28044 5.014 4.07305h2.2121C75.6311 2.30165 72.4425.422232 68.7144.422232c-5.5534 0-9.616 4.884128-9.616 10.706968 0 4.8056 3.0087 8.4446 8.3572 8.4446 4.9637 0 8.075-2.9242 8.6396-9.66217h-7.5876l-.3075 1.87157ZM88.7452.428123c-5.5805 0-9.8733 4.805577-9.8733 10.759977 0 4.8056 3.3163 8.3838 8.4076 8.3838C92.7053 19.5719 97 15.0275 97 8.83936 97 4.26748 94.0415.428123 88.7452.428123ZM87.3046 17.7101c-3.5734 0-6.12-2.4548-6.12-6.5298 0-4.83112 2.9005-8.93167 7.5413-8.93167 3.8576 0 5.9653 2.94579 5.9653 6.58091-.0058 5.10016-3.0146 8.88646-7.3866 8.88646v-.0059ZM17.7181 0H3.11125L0 20h14.5082l3.2099-20Z"/></svg>